<?xml version="1.0" standalone="no"?>
<!DOCTYPE svg PUBLIC "-//W3C//DTD SVG 20010904//EN"
 "http://www.w3.org/TR/2001/REC-SVG-20010904/DTD/svg10.dtd">
<svg version="1.0" xmlns="http://www.w3.org/2000/svg"
 width="800.000000pt" height="800.000000pt" viewBox="0 0 800.000000 800.000000"
 preserveAspectRatio="xMidYMid meet">
<metadata>
Created by potrace 1.11, written by Peter Selinger 2001-2013
</metadata>
<g transform="translate(0.000000,800.000000) scale(0.100000,-0.100000)"
fill="#000000" stroke="none">
<path d="M323 4711 c2 -1637 6 -2992 10 -3011 3 -19 9 -51 12 -70 12 -72 47
-205 56 -215 5 -5 9 -17 9 -27 0 -31 126 -297 151 -318 3 -3 12 -16 19 -30 37
-72 213 -271 316 -358 64 -54 284 -199 284 -187 0 2 22 -9 49 -24 94 -56 341
-129 501 -148 73 -9 4458 -9 4535 0 33 4 71 9 85 12 14 3 34 7 45 9 119 24
283 77 335 107 8 5 22 12 30 15 48 19 204 107 220 124 3 3 22 16 42 30 21 14
38 28 38 33 0 4 4 7 9 7 20 0 167 141 239 230 70 85 72 88 107 140 50 76 94
159 148 280 16 37 63 183 71 222 47 221 45 108 42 2498 -1 1240 -5 2267 -8
2282 -3 14 -9 39 -12 55 -4 15 -8 37 -10 48 -11 53 -47 186 -61 221 -44 107
-119 260 -141 285 -8 8 -14 19 -14 23 0 6 -18 34 -57 85 -65 89 -181 213 -270
290 -46 40 -180 131 -192 131 -6 0 -11 4 -11 8 0 12 -174 97 -270 131 -105 37
-197 64 -230 66 -14 1 -36 5 -50 8 -14 4 -43 9 -65 13 -22 4 -1373 8 -3003 9
l-2962 3 3 -2977z m1100 2045 c23 1 47 3 52 4 6 1 12 2 15 1 17 -6 81 -7 85
-1 3 5 50 6 50 0 0 -6 64 -5 81 1 12 4 24 5 28 2 8 -8 76 -11 81 -3 3 5 50 6
50 0 0 -6 64 -5 81 1 12 4 24 5 28 2 8 -8 76 -11 81 -3 3 5 50 6 50 0 0 -6 64
-5 81 1 12 4 24 5 28 2 8 -8 76 -11 81 -3 4 6 40 6 55 0 3 -1 32 -3 65 -4 l60
-1 0 -1727 c1 -951 -2 -1728 -5 -1729 -26 -5 -1094 -2 -1102 2 -12 8 -18 352
-6 387 4 12 4 22 0 22 -9 0 -7 293 2 309 4 6 3 11 -1 11 -10 0 -8 134 2 150 3
5 3 10 -2 10 -4 0 -8 56 -8 125 0 69 4 125 8 125 4 0 4 8 -1 18 -9 19 -8 121
1 146 4 10 3 14 -2 11 -6 -3 -6 7 -1 25 5 16 6 30 2 30 -4 0 -7 56 -7 125 0
69 4 125 8 125 4 0 4 8 -1 18 -9 19 -8 121 1 146 4 10 3 14 -2 11 -6 -3 -6 7
-1 25 5 16 6 30 2 30 -4 0 -7 56 -7 125 0 69 4 125 8 125 4 0 4 8 -1 18 -9 19
-8 121 1 146 4 10 3 14 -2 11 -6 -3 -6 7 -1 25 5 16 6 30 2 30 -4 0 -7 56 -7
125 0 69 4 125 8 125 4 0 4 8 -1 18 -9 19 -8 121 1 146 4 10 3 14 -2 11 -6 -3
-6 7 -1 25 5 16 6 30 2 30 -4 0 -7 56 -7 125 0 69 4 125 8 125 4 0 4 8 -1 18
-9 19 -8 121 1 146 4 10 3 14 -2 11 -6 -3 -6 7 -1 25 5 16 5 30 1 30 -8 0 -5
147 5 169 3 9 8 11 10 6 2 -6 23 -10 47 -9z m2514 -1 c18 -1 36 1 38 5 3 5 50
6 50 0 0 -6 64 -5 81 1 12 4 24 5 28 2 8 -8 76 -11 81 -3 3 5 50 6 50 0 0 -6
64 -5 81 1 12 4 24 5 28 2 8 -8 76 -11 81 -3 3 5 50 6 50 0 0 -6 64 -5 81 1
12 4 24 5 28 2 8 -8 76 -11 81 -3 3 5 50 6 50 0 0 -6 64 -5 81 1 12 4 24 5 28
2 8 -8 76 -11 81 -3 3 5 50 6 50 0 0 -6 64 -5 81 1 12 4 24 5 28 2 8 -8 76
-11 81 -3 3 5 50 6 50 0 0 -6 64 -5 81 1 12 4 24 5 28 2 8 -8 76 -11 81 -3 3
5 50 6 50 0 0 -6 64 -5 81 1 12 4 25 5 28 2 5 -5 112 -6 251 -2 83 2 307 -11
329 -20 16 -6 31 -10 33 -7 8 7 116 -45 178 -87 142 -96 232 -229 271 -402 4
-16 8 -166 10 -332 3 -237 1 -303 -9 -303 -6 -1 -365 -1 -795 -2 -778 0 -814
-2 -907 -32 -5 -2 -14 -4 -20 -6 -5 -1 -41 -18 -79 -39 -61 -32 -168 -124
-218 -188 -21 -27 -87 -161 -92 -188 -3 -11 -10 -42 -16 -70 -9 -37 -12 -531
-12 -1945 l-1 -1895 -1296 0 c-713 1 -1301 4 -1307 8 -7 4 -29 9 -50 13 -81
13 -208 83 -290 160 -78 74 -161 220 -178 314 -3 19 -8 44 -10 56 -5 23 -9 96
-6 104 5 15 6 50 1 50 -3 0 -6 56 -6 125 0 69 4 125 8 125 5 0 5 5 1 12 -10
15 -11 158 -2 158 4 0 5 6 2 13 -4 11 135 13 753 14 417 0 785 3 818 6 186 18
347 113 460 272 25 34 45 66 45 69 0 4 9 26 19 49 50 110 49 50 50 2032 0
1018 1 1869 1 1892 l0 42 180 -1 c99 -1 183 2 187 5 3 4 10 4 16 0 5 -3 25 -7
44 -8z m2711 -3483 c0 -871 -4 -1460 -10 -1493 -15 -86 -64 -207 -106 -262
-58 -75 -163 -165 -234 -200 -128 -62 -177 -69 -488 -71 l-275 -1 -3 1732 -2
1732 559 0 559 0 0 -1437z"/>
</g>
</svg>
